<svg width="380" height="380" viewBox="0 0 380 380" fill="none" xmlns="http://www.w3.org/2000/svg">
<rect width="380" height="380" rx="30" fill="white"/>
<path d="M100.816 135.364H98.785C68.4422 135.364 43.8445 159.962 43.8445 190.305C43.8445 220.647 68.4422 245.245 98.785 245.245H100.816C131.159 245.245 155.756 220.647 155.756 190.305C155.756 159.962 131.159 135.364 100.816 135.364Z" fill="url(#paint0_radial_13766_2321)"/>
<path d="M40 190C40 223.137 66.7883 250 99.8331 250C132.878 250 159.666 223.137 159.666 190C159.666 156.863 132.878 130 99.8331 130C66.7883 130 40 156.863 40 190ZM46.1717 190C46.2068 160.278 70.2629 136.212 99.9027 136.247C129.542 136.282 153.541 160.406 153.506 190.128C153.471 219.827 129.45 243.884 99.8331 243.881C70.1776 243.865 46.1498 219.744 46.1661 190.006C46.1661 190.004 46.1661 190.002 46.1661 190H46.1717Z" fill="#FF7618"/>
<path d="M99.8332 154.395C104.11 154.399 108.013 156.836 109.905 160.683C108.888 161.286 107.951 162.016 107.117 162.856C103.096 166.888 96.5761 166.888 92.5547 162.856C91.7202 162.017 90.7838 161.287 89.7672 160.683C91.6557 156.836 95.5579 154.399 99.8332 154.395ZM110.988 164.431C111.035 164.842 111.058 165.255 111.058 165.669C111.068 172.907 116.919 178.772 124.137 178.778C124.55 178.778 124.962 178.801 125.372 178.848C125.049 179.294 124.693 179.713 124.305 180.103C118.841 185.584 118.841 194.468 124.305 199.948C124.693 200.34 125.049 200.762 125.372 201.209C124.962 201.256 124.549 201.279 124.137 201.279C116.922 201.285 111.073 207.148 111.064 214.383C111.064 214.799 111.041 215.214 110.994 215.627C110.548 215.302 110.128 214.942 109.737 214.552C104.268 209.075 95.4095 209.075 89.941 214.552C89.5502 214.942 89.1296 215.302 88.6834 215.627C88.6387 215.214 88.6173 214.799 88.6198 214.383C88.607 207.149 82.7605 201.289 75.5465 201.279C75.1357 201.279 74.7257 201.256 74.3178 201.209C74.6395 200.763 74.996 200.344 75.3839 199.954C80.8502 194.475 80.8521 185.589 75.3881 180.108C75.3867 180.106 75.3853 180.105 75.3839 180.104C74.9939 179.714 74.6355 179.295 74.3119 178.848C74.7217 178.802 75.1339 178.778 75.5462 178.779C82.7626 178.769 88.61 172.905 88.6196 165.669C88.6175 165.255 88.6387 164.842 88.6831 164.431C89.1294 164.756 89.5499 165.115 89.9408 165.506C95.4051 170.987 104.266 170.989 109.732 165.51C109.734 165.509 109.735 165.507 109.736 165.506C110.127 165.117 110.545 164.757 110.988 164.431ZM129.08 179.935C134.64 182.672 136.934 189.409 134.205 194.984C133.111 197.218 131.309 199.026 129.08 200.123C128.476 199.103 127.746 198.164 126.907 197.328C122.89 193.296 122.89 186.762 126.907 182.73C127.748 181.885 128.478 180.936 129.08 179.906V179.935ZM109.905 219.352C107.168 224.93 100.44 227.227 94.8775 224.482C92.6542 223.385 90.8555 221.581 89.7616 219.352C90.7782 218.748 91.7146 218.017 92.5491 217.179C96.5719 213.15 103.089 213.15 107.112 217.179C107.95 218.008 108.888 218.728 109.905 219.323V219.352H109.905ZM70.5859 200.094C65.0268 197.357 62.7325 190.62 65.4613 185.045C66.5552 182.81 68.3575 181.003 70.5859 179.906C71.1894 180.925 71.9174 181.864 72.7531 182.701C76.7731 186.731 76.774 193.266 72.7554 197.297C72.7545 197.297 72.7538 197.298 72.7531 197.298C71.9188 198.137 71.1908 199.076 70.5859 200.094ZM99.8332 227.464C104.808 227.461 109.35 224.63 111.556 220.16C118.687 223.176 126.905 219.825 129.913 212.675C131.381 209.184 131.382 205.247 129.915 201.756C136.388 198.555 139.048 190.699 135.856 184.208C134.584 181.62 132.495 179.526 129.915 178.25C132.921 171.099 129.576 162.858 122.445 159.844C118.964 158.373 115.037 158.373 111.556 159.846C108.408 153.355 100.609 150.652 94.1362 153.809C91.512 155.088 89.392 157.214 88.1156 159.846C80.9811 156.832 72.7606 160.188 69.7549 167.343C68.2897 170.83 68.2888 174.762 69.7514 178.25C63.2801 181.454 60.6241 189.311 63.8189 195.801C65.0903 198.384 67.1755 200.474 69.7514 201.75C66.7419 208.899 70.0817 217.141 77.2114 220.16C80.6953 221.634 84.6258 221.634 88.1098 220.16C90.3163 224.63 94.8588 227.461 99.8332 227.464ZM112.715 216.609C112.844 215.866 112.908 215.114 112.907 214.36C112.913 208.147 117.936 203.113 124.131 203.11C124.885 203.111 125.637 203.046 126.38 202.918C128.75 208.106 126.478 214.238 121.304 216.615C118.579 217.867 115.446 217.867 112.721 216.615L112.715 216.609ZM126.374 177.093C125.633 176.965 124.883 176.901 124.131 176.902C117.936 176.899 112.913 171.864 112.907 165.651C112.906 164.897 112.84 164.145 112.71 163.402C117.883 161.025 123.998 163.303 126.369 168.491C127.616 171.22 127.617 174.357 126.374 177.087L126.374 177.093ZM86.9682 163.396C86.8397 164.141 86.7757 164.895 86.7771 165.651C86.7643 171.867 81.7339 176.899 75.535 176.896C74.7832 176.895 74.033 176.959 73.2923 177.088C70.9219 171.9 73.1945 165.767 78.3679 163.391C81.0928 162.139 84.2261 162.139 86.951 163.391L86.9682 163.396ZM73.3096 202.912C74.0505 203.04 74.8007 203.104 75.5523 203.104C81.7467 203.11 86.7675 208.142 86.7771 214.354C86.7757 215.11 86.8397 215.864 86.9682 216.609C81.7997 218.996 75.6801 216.73 73.2996 211.547C72.0422 208.809 72.0394 205.658 73.2923 202.918L73.3096 202.912Z" fill="#FFE0CB"/>
<path d="M196.175 159.253H186.504L183.763 166.965C183.725 167.118 183.648 167.194 183.458 167.194H180.869C180.678 167.194 180.602 167.08 180.64 166.889L188.941 143.713C189.055 143.407 189.169 143.14 189.207 142.147C189.207 142.033 189.284 141.956 189.398 141.956H193.129C193.281 141.956 193.32 141.994 193.358 142.147L202.305 166.927C202.382 167.08 202.343 167.194 202.153 167.194H199.259C199.107 167.194 199.031 167.118 198.955 167.004L196.175 159.253ZM187.38 156.313H195.299C194.462 153.831 192.063 147.149 191.34 144.553H191.302C190.654 146.996 188.827 152.113 187.38 156.313Z" fill="black"/>
<path d="M212.733 167.576C207.441 167.576 203.328 164.369 203.328 158.069C203.328 152.456 207.479 148.256 213.685 148.256C214.751 148.256 215.36 148.371 216.084 148.485V140.047C216.084 139.856 216.16 139.818 216.312 139.818H219.054C219.244 139.818 219.282 139.894 219.282 140.009V164.064C219.282 164.598 219.282 165.247 219.358 165.896C219.358 166.049 219.32 166.087 219.168 166.164C216.998 167.194 214.865 167.576 212.733 167.576ZM216.084 164.293V151.387C215.474 151.12 214.561 151.005 213.609 151.005C209.268 151.005 206.565 153.945 206.565 157.916C206.565 162.88 209.687 164.789 213.038 164.789C214.028 164.789 215.208 164.674 216.084 164.293Z" fill="black"/>
<path d="M231.292 148.256C236.66 148.256 239.973 152.38 239.973 157.878C239.973 163.682 236.394 167.576 231.292 167.576C225.161 167.576 222.534 162.613 222.534 157.916C222.534 152.533 225.961 148.256 231.292 148.256ZM231.139 151.005C227.941 151.005 225.733 153.754 225.733 157.84C225.733 161.734 227.751 164.827 231.368 164.827C234.071 164.827 236.736 162.689 236.736 157.954C236.736 154.404 235.099 151.005 231.139 151.005Z" fill="black"/>
<path d="M243.451 139.818H246.116C246.306 139.818 246.383 139.818 246.383 140.047V149.02C247.601 148.524 248.972 148.256 250.495 148.256C255.749 148.256 259.176 152.036 259.176 157.191C259.176 164.064 253.998 167.576 248.629 167.576C246.725 167.576 245.05 167.347 243.413 166.813C243.26 166.774 243.184 166.622 243.184 166.469V140.047C243.184 139.856 243.26 139.818 243.451 139.818ZM255.94 157.458C255.94 153.564 253.655 151.044 250 151.044C248.363 151.044 247.335 151.311 246.383 151.693V164.522C247.106 164.751 247.868 164.827 248.896 164.827C252.551 164.827 255.94 162.384 255.94 157.458Z" fill="black"/>
<path d="M272.891 158.298H264.591C264.552 161.925 266.647 164.789 270.949 164.789C272.624 164.789 274.224 164.484 275.709 163.758C275.823 163.682 275.899 163.758 275.899 163.911V166.087C275.899 166.316 275.823 166.393 275.709 166.469C274.414 167.118 272.739 167.576 270.34 167.576C263.753 167.576 261.392 162.727 261.392 158.069C261.392 152.724 264.514 148.256 269.807 148.256C275.252 148.256 277.232 152.685 277.232 155.931C277.232 156.885 277.155 157.573 277.079 157.916C277.079 158.031 276.965 158.145 276.813 158.145C276.242 158.26 274.566 158.298 272.891 158.298ZM264.629 155.931H271.711C273.576 155.931 274.033 155.893 274.147 155.854C274.186 155.74 274.186 155.549 274.186 155.434C274.186 154.06 273.272 150.891 269.693 150.891C266.532 150.891 264.971 153.373 264.629 155.931Z" fill="black"/>
<path d="M196.665 199.431L196.246 201.874C196.208 202.065 196.132 202.104 195.979 202.104H181.511C181.244 202.104 181.206 202.027 181.206 201.798V177.133C181.206 176.942 181.282 176.865 181.473 176.865H195.37C195.561 176.865 195.599 176.904 195.637 177.094L195.941 179.5C195.979 179.653 195.941 179.767 195.751 179.767H184.366V187.747H194.647C194.799 187.747 194.875 187.824 194.875 187.976V190.42C194.875 190.611 194.761 190.649 194.647 190.649H184.366V199.202H196.474C196.665 199.202 196.703 199.278 196.665 199.431Z" fill="black"/>
<path d="M204.125 192.825L198.224 183.853C198.11 183.7 198.186 183.547 198.338 183.547H201.46C201.689 183.547 201.765 183.624 201.841 183.776L206.296 190.954H206.334L210.979 183.738C211.055 183.585 211.131 183.547 211.284 183.547H214.101C214.254 183.547 214.33 183.662 214.216 183.814C212.731 186.029 209.837 190.382 208.162 192.673C209.685 194.964 213.149 200.004 214.482 201.836C214.596 201.951 214.52 202.104 214.33 202.104H211.131C210.941 202.104 210.827 202.027 210.751 201.874L206.067 194.544H206.029L201.308 201.913C201.232 202.065 201.194 202.104 201.003 202.104H198.186C197.995 202.104 197.919 201.989 198.033 201.836C199.785 199.316 202.374 195.307 204.125 192.825Z" fill="black"/>
<path d="M223.568 183.165C229.203 183.165 232.477 187.06 232.477 192.176C232.477 199.125 226.994 202.485 221.588 202.485C220.712 202.485 220.179 202.409 219.646 202.333V209.969C219.646 210.122 219.646 210.198 219.455 210.236C218.58 210.313 216.828 210.504 216.676 210.542C216.524 210.542 216.485 210.504 216.485 210.313V186.525C216.485 186.182 216.447 185.342 216.409 184.845C216.409 184.807 216.409 184.731 216.485 184.693C217.818 184.196 220.331 183.165 223.568 183.165ZM223.187 185.953C221.854 185.953 220.712 186.182 219.646 186.564V199.507C220.293 199.698 221.093 199.736 221.816 199.736C225.509 199.736 229.241 197.445 229.241 192.367C229.241 188.473 227.032 185.953 223.187 185.953Z" fill="black"/>
<path d="M246.192 193.207H237.892C237.854 196.834 239.948 199.698 244.25 199.698C245.926 199.698 247.525 199.393 249.01 198.667C249.124 198.591 249.2 198.667 249.2 198.82V200.996C249.2 201.225 249.124 201.302 249.01 201.378C247.715 202.027 246.04 202.485 243.641 202.485C237.054 202.485 234.693 197.636 234.693 192.978C234.693 187.633 237.816 183.165 243.108 183.165C248.553 183.165 250.533 187.594 250.533 190.84C250.533 191.794 250.457 192.482 250.381 192.825C250.381 192.94 250.266 193.054 250.114 193.054C249.543 193.169 247.868 193.207 246.192 193.207ZM237.93 190.84H245.012C246.878 190.84 247.334 190.802 247.449 190.764C247.487 190.649 247.487 190.458 247.487 190.344C247.487 188.969 246.573 185.8 242.994 185.8C239.834 185.8 238.272 188.282 237.93 190.84Z" fill="black"/>
<path d="M253.633 183.547H256.07C256.298 183.547 256.336 183.624 256.412 183.814C256.565 184.273 256.679 185.609 256.717 186.449C258.05 184.616 260.41 183.165 262.847 183.165C263.038 183.165 263.114 183.204 263.114 183.433V186.182C263.114 186.373 263.076 186.411 262.847 186.411C260.22 186.373 257.821 187.671 256.869 189.198L256.831 201.874C256.831 202.065 256.755 202.104 256.603 202.104H253.9C253.709 202.104 253.633 202.027 253.633 201.836V188.664C253.633 187.06 253.557 184.845 253.443 183.776C253.443 183.624 253.481 183.547 253.633 183.547Z" fill="black"/>
<path d="M265.253 201.798V183.814C265.253 183.624 265.33 183.547 265.52 183.547H268.223C268.376 183.547 268.452 183.585 268.452 183.776V201.836C268.452 202.027 268.414 202.104 268.185 202.104H265.558C265.368 202.104 265.253 202.027 265.253 201.798ZM266.853 179.882C265.672 179.882 264.949 179.08 264.949 177.934C264.949 176.789 265.748 175.987 266.891 175.987C268.109 175.987 268.795 176.827 268.795 177.934C268.795 179.08 268.033 179.882 266.853 179.882Z" fill="black"/>
<path d="M283.21 193.207H274.91C274.872 196.834 276.966 199.698 281.268 199.698C282.944 199.698 284.543 199.393 286.028 198.667C286.142 198.591 286.218 198.667 286.218 198.82V200.996C286.218 201.225 286.142 201.302 286.028 201.378C284.733 202.027 283.058 202.485 280.659 202.485C274.072 202.485 271.711 197.636 271.711 192.978C271.711 187.633 274.834 183.165 280.126 183.165C285.571 183.165 287.551 187.594 287.551 190.84C287.551 191.794 287.475 192.482 287.399 192.825C287.399 192.94 287.284 193.054 287.132 193.054C286.561 193.169 284.886 193.207 283.21 193.207ZM274.948 190.84H282.03C283.896 190.84 284.353 190.802 284.467 190.764C284.505 190.649 284.505 190.458 284.505 190.344C284.505 188.969 283.591 185.8 280.012 185.8C276.852 185.8 275.291 188.282 274.948 190.84Z" fill="black"/>
<path d="M290.651 201.836V187.862C290.651 186.564 290.575 184.425 290.499 183.776C290.499 183.624 290.537 183.547 290.727 183.547H293.088C293.278 183.547 293.354 183.624 293.431 183.776C293.545 184.12 293.583 184.845 293.659 185.685C295.334 184.005 297.276 183.165 299.485 183.165C302.188 183.165 305.691 184.502 305.691 190.534V201.836C305.691 202.027 305.615 202.104 305.424 202.104H302.759C302.569 202.104 302.493 202.027 302.493 201.798V190.84C302.493 187.938 301.236 185.991 298.571 185.991C296.629 185.991 295.03 186.869 293.811 188.32V201.836C293.811 202.027 293.773 202.104 293.583 202.104H290.88C290.727 202.104 290.651 202.027 290.651 201.836Z" fill="black"/>
<path d="M322.641 199.24V201.607C322.641 201.76 322.641 201.836 322.488 201.874C321.232 202.371 319.747 202.485 318.338 202.485C312.132 202.485 308.933 198.056 308.933 192.902C308.933 187.327 312.893 183.165 318.871 183.165C320.813 183.165 321.879 183.394 322.488 183.662C322.641 183.738 322.641 183.814 322.641 184.005V186.411C322.641 186.602 322.526 186.602 322.374 186.564C321.422 186.182 320.432 185.991 318.871 185.991C314.949 185.991 312.17 188.625 312.17 192.787C312.17 197.369 315.33 199.622 318.871 199.622C320.28 199.622 321.46 199.469 322.412 199.087C322.602 199.049 322.641 199.125 322.641 199.24Z" fill="black"/>
<path d="M335.659 193.207H327.359C327.321 196.834 329.415 199.698 333.718 199.698C335.393 199.698 336.992 199.393 338.477 198.667C338.591 198.591 338.667 198.667 338.667 198.82V200.996C338.667 201.225 338.591 201.302 338.477 201.378C337.182 202.027 335.507 202.485 333.108 202.485C326.521 202.485 324.161 197.636 324.161 192.978C324.161 187.633 327.283 183.165 332.575 183.165C338.02 183.165 340 187.594 340 190.84C340 191.794 339.924 192.482 339.848 192.825C339.848 192.94 339.734 193.054 339.581 193.054C339.01 193.169 337.335 193.207 335.659 193.207ZM327.397 190.84H334.479C336.345 190.84 336.802 190.802 336.916 190.764C336.954 190.649 336.954 190.458 336.954 190.344C336.954 188.969 336.04 185.8 332.461 185.8C329.301 185.8 327.74 188.282 327.397 190.84Z" fill="black"/>
<path d="M182.424 213.094C182.463 212.865 182.539 212.865 182.691 212.865H186.917C187.108 212.865 187.146 212.942 187.222 213.094C188.517 217.027 193.124 230.734 193.923 234.056H193.961C194.837 230.887 199.901 216.989 201.196 213.094C201.234 212.942 201.272 212.865 201.462 212.865H205.574C205.765 212.865 205.765 212.904 205.803 213.056L207.097 237.874C207.136 238.027 207.021 238.104 206.869 238.104H204.051C203.861 238.104 203.785 238.065 203.785 237.913C203.442 229.131 203.061 217.409 203.061 215.118H203.023C202.11 218.554 197.007 232.987 195.408 237.874C195.37 238.065 195.256 238.104 195.104 238.104H192.438C192.21 238.104 192.134 238.065 192.096 237.874C190.078 231.536 186.08 218.936 185.052 215.08H184.976C184.937 218.402 184.252 229.856 183.833 237.874C183.833 238.065 183.757 238.104 183.567 238.104H180.978C180.787 238.104 180.749 238.065 180.749 237.874L182.424 213.094Z" fill="black"/>
<path d="M222.482 235.24V229.245C221.949 229.169 221.111 229.093 219.969 229.093C216.276 229.093 214.486 230.353 214.486 232.491C214.486 234.209 215.667 235.889 219.017 235.889C220.236 235.889 221.378 235.698 222.482 235.24ZM225.566 226.344V234.858C225.566 235.507 225.566 236.08 225.642 236.691C225.642 236.767 225.642 236.805 225.566 236.844C222.825 238.142 220.654 238.485 218.446 238.485C214.41 238.485 211.364 236.5 211.364 232.491C211.364 228.444 215.134 226.649 219.855 226.649C221.264 226.649 222.063 226.687 222.482 226.725V225.809C222.482 224.625 221.911 221.991 218.18 221.991C216.352 221.991 214.677 222.411 213.344 223.136C213.23 223.174 213.077 223.136 213.077 222.945V220.616C213.077 220.464 213.154 220.387 213.268 220.311C214.753 219.585 216.657 219.165 218.675 219.165C223.548 219.165 225.566 222.373 225.566 226.344Z" fill="black"/>
<path d="M231.264 237.836V223.862C231.264 222.564 231.187 220.425 231.111 219.776C231.111 219.624 231.149 219.547 231.34 219.547H233.7C233.891 219.547 233.967 219.624 234.043 219.776C234.157 220.12 234.195 220.845 234.272 221.685C235.947 220.005 237.889 219.165 240.097 219.165C242.8 219.165 246.303 220.502 246.303 226.534V237.836C246.303 238.027 246.227 238.104 246.037 238.104H243.372C243.181 238.104 243.105 238.027 243.105 237.798V226.84C243.105 223.938 241.849 221.991 239.183 221.991C237.241 221.991 235.642 222.869 234.424 224.32V237.836C234.424 238.027 234.386 238.104 234.195 238.104H231.492C231.34 238.104 231.264 238.027 231.264 237.836Z" fill="black"/>
<path d="M261.654 235.24V229.245C261.121 229.169 260.283 229.093 259.141 229.093C255.448 229.093 253.658 230.353 253.658 232.491C253.658 234.209 254.838 235.889 258.189 235.889C259.407 235.889 260.55 235.698 261.654 235.24ZM264.738 226.344V234.858C264.738 235.507 264.738 236.08 264.814 236.691C264.814 236.767 264.814 236.805 264.738 236.844C261.997 238.142 259.826 238.485 257.618 238.485C253.582 238.485 250.536 236.5 250.536 232.491C250.536 228.444 254.305 226.649 259.027 226.649C260.435 226.649 261.235 226.687 261.654 226.725V225.809C261.654 224.625 261.083 221.991 257.351 221.991C255.524 221.991 253.848 222.411 252.516 223.136C252.401 223.174 252.249 223.136 252.249 222.945V220.616C252.249 220.464 252.325 220.387 252.44 220.311C253.925 219.585 255.828 219.165 257.846 219.165C262.72 219.165 264.738 222.373 264.738 226.344Z" fill="black"/>
<path d="M277.538 237.722L273.502 237.531C271.941 238.638 270.951 240.242 270.951 241.082C270.951 242.838 273.045 244.633 276.548 244.633C280.736 244.633 282.602 242.647 282.602 240.738C282.602 238.485 280.241 237.874 277.538 237.722ZM275.901 221.609C273.502 221.609 271.941 223.174 271.941 225.618C271.941 227.947 273.312 229.627 275.863 229.627C278.261 229.627 279.746 228.176 279.746 225.694C279.746 223.48 278.566 221.609 275.901 221.609ZM274.301 234.782L278.185 234.973C282.907 235.202 285.572 236.92 285.572 240.28C285.572 244.098 281.955 247.114 276.358 247.114C270.722 247.114 267.943 244.136 267.943 241.311C267.943 240.013 269.047 238.294 271.674 236.08C271.065 235.24 270.76 234.247 270.76 233.216C270.76 232.376 270.989 231.536 271.408 230.811C269.847 229.78 268.819 228.062 268.819 225.656C268.819 222.105 271.446 219.165 275.939 219.165C277.119 219.165 278.109 219.318 278.794 219.471C279.137 219.547 279.366 219.547 279.594 219.547H284.963C285.153 219.547 285.191 219.624 285.191 219.776V221.953C285.191 222.105 285.153 222.182 284.963 222.182C283.973 222.182 282.374 222.105 281.46 222.029C282.145 222.754 282.792 223.976 282.792 225.733C282.792 229.933 279.67 232.033 275.901 232.033C275.177 232.033 274.492 231.956 273.807 231.804C273.616 232.262 273.54 232.758 273.616 233.216C273.692 233.789 273.921 234.324 274.301 234.782Z" fill="black"/>
<path d="M298.793 229.207H290.493C290.454 232.834 292.549 235.698 296.851 235.698C298.526 235.698 300.126 235.393 301.611 234.667C301.725 234.591 301.801 234.667 301.801 234.82V236.996C301.801 237.225 301.725 237.302 301.611 237.378C300.316 238.027 298.641 238.485 296.242 238.485C289.655 238.485 287.294 233.636 287.294 228.978C287.294 223.633 290.416 219.165 295.709 219.165C301.154 219.165 303.134 223.594 303.134 226.84C303.134 227.794 303.057 228.482 302.981 228.825C302.981 228.94 302.867 229.054 302.715 229.054C302.144 229.169 300.468 229.207 298.793 229.207ZM290.531 226.84H297.613C299.478 226.84 299.935 226.802 300.05 226.764C300.088 226.649 300.088 226.458 300.088 226.344C300.088 224.969 299.174 221.8 295.595 221.8C292.434 221.8 290.873 224.282 290.531 226.84Z" fill="black"/>
<path d="M307.376 219.547H309.813C310.041 219.547 310.079 219.624 310.156 219.814C310.308 220.273 310.422 221.609 310.46 222.449C311.793 220.616 314.154 219.165 316.59 219.165C316.781 219.165 316.857 219.204 316.857 219.433V222.182C316.857 222.373 316.819 222.411 316.59 222.411C313.963 222.373 311.564 223.671 310.613 225.198L310.574 237.874C310.574 238.065 310.498 238.104 310.346 238.104H307.643C307.452 238.104 307.376 238.027 307.376 237.836V224.664C307.376 223.06 307.3 220.845 307.186 219.776C307.186 219.624 307.224 219.547 307.376 219.547Z" fill="black"/>
<defs>
<radialGradient id="paint0_radial_13766_2321" cx="0" cy="0" r="1" gradientUnits="userSpaceOnUse" gradientTransform="translate(88.4203 171.847) scale(73.0849 73.2854)">
<stop stop-color="#3A2A1D"/>
<stop offset="0.77" stop-color="#241405"/>
</radialGradient>
</defs>
</svg>
