<svg width="40" height="40" viewBox="0 0 40 40" fill="none" xmlns="http://www.w3.org/2000/svg">
<path d="M0 20C0 31.0457 8.95434 40 20 40C31.0457 40 40 31.0457 40 20C40 8.95425 31.0457 0 20 0C8.95434 0 0 8.95433 0 20ZM2.06298 20C2.0747 10.0926 10.1158 2.07056 20.0233 2.08235C29.9306 2.09414 37.9526 10.1352 37.9409 20.0426C37.9292 29.9425 29.8998 37.9613 20 37.9603C10.0873 37.9549 2.05564 29.9147 2.06111 20.002C2.06111 20.0013 2.06111 20.0006 2.06111 20H2.06298Z" fill="#FF7618"/>
<path d="M20.0001 8.13179C21.4296 8.1332 22.7344 8.94555 23.3666 10.2277C23.0266 10.4287 22.7135 10.6721 22.4349 10.9521C21.0907 12.2962 18.9113 12.2962 17.5671 10.9521C17.2882 10.6724 16.9752 10.429 16.6354 10.2277C17.2666 8.94555 18.571 8.13304 20.0001 8.13179ZM23.7288 11.477C23.7444 11.614 23.7522 11.7518 23.7521 11.8896C23.7553 14.3025 25.7111 16.2575 28.124 16.2596C28.2618 16.2595 28.3996 16.2672 28.5366 16.2828C28.4287 16.4313 28.3096 16.5712 28.1801 16.7012C26.3537 18.528 26.3537 21.4894 28.1801 23.3162C28.3096 23.4469 28.4289 23.5875 28.5366 23.7366C28.3996 23.7521 28.2618 23.7599 28.124 23.7599C25.7122 23.7619 23.7573 25.716 23.7541 28.1278C23.7542 28.2664 23.7464 28.4048 23.7308 28.5424C23.5816 28.434 23.4411 28.3142 23.3104 28.1841C21.4826 26.3585 18.5214 26.3585 16.6935 28.1841C16.5628 28.3142 16.4222 28.434 16.2731 28.5424C16.2582 28.4048 16.251 28.2664 16.2518 28.1278C16.2475 25.7164 14.2933 23.7629 11.8819 23.7599C11.7446 23.7599 11.6075 23.7521 11.4712 23.7366C11.5787 23.5879 11.6979 23.448 11.8275 23.3182C13.6548 21.4918 13.6554 18.5298 11.829 16.7026C11.8285 16.7022 11.828 16.7017 11.8275 16.7013C11.6972 16.5715 11.5774 16.4316 11.4692 16.2829C11.6062 16.2673 11.744 16.2596 11.8818 16.2596C14.294 16.2564 16.2486 14.3018 16.2518 11.8896C16.2511 11.7518 16.2582 11.6141 16.273 11.477C16.4222 11.5854 16.5627 11.7052 16.6934 11.8353C18.5199 13.6626 21.4818 13.6632 23.309 11.8367C23.3095 11.8363 23.3099 11.8358 23.3103 11.8353C23.4407 11.7056 23.5806 11.5858 23.7288 11.477ZM29.7764 16.6451C31.6346 17.5573 32.4015 19.8032 31.4893 21.6614C31.1237 22.4062 30.5212 23.0087 29.7764 23.3743C29.5743 23.0345 29.3303 22.7215 29.0499 22.4427C27.7071 21.0987 27.7071 18.9208 29.0499 17.5768C29.331 17.295 29.575 16.9787 29.7764 16.6354V16.6451ZM23.3666 29.784C22.4517 31.6434 20.2028 32.409 18.3436 31.4941C17.6004 31.1283 16.9991 30.5271 16.6335 29.784C16.9733 29.5827 17.2863 29.3392 17.5653 29.0597C18.9099 27.7166 21.0883 27.7166 22.4331 29.0597C22.7131 29.336 23.0268 29.5761 23.3667 29.7744V29.784H23.3666ZM10.2238 23.3647C8.36555 22.4524 7.59865 20.2066 8.51081 18.3484C8.87645 17.6035 9.47889 17.0011 10.2238 16.6354C10.4255 16.975 10.6688 17.288 10.9482 17.5671C12.2919 18.9105 12.2922 21.0886 10.949 22.4323C10.9487 22.4324 10.9484 22.4327 10.9482 22.4329C10.6693 22.7125 10.426 23.0255 10.2238 23.3647ZM20.0001 32.4882C21.6628 32.487 23.1811 31.5434 23.9187 30.0533C26.3022 31.0587 29.0493 29.9417 30.0547 27.5583C30.5454 26.3948 30.5457 25.0824 30.0552 23.9187C32.2189 22.8517 33.1081 20.2329 32.0412 18.0693C31.6159 17.2067 30.9178 16.5087 30.0552 16.0834C31.0599 13.6997 29.942 10.9529 27.5583 9.94815C26.3946 9.45771 25.0822 9.45786 23.9187 9.9487C22.8664 7.78497 20.2594 6.88405 18.0958 7.93632C17.2186 8.36288 16.5099 9.07152 16.0833 9.9487C13.6985 8.94399 10.9507 10.0628 9.94598 12.4476C9.45624 13.61 9.45593 14.9207 9.94481 16.0833C7.7817 17.1513 6.89391 19.7705 7.96179 21.9336C8.38679 22.7946 9.0838 23.4916 9.94481 23.9167C8.93885 26.2999 10.0552 29.0472 12.4384 30.0533C13.603 30.5448 14.9168 30.5448 16.0814 30.0533C16.8189 31.5434 18.3373 32.487 20.0001 32.4882ZM24.3061 28.8697C24.3491 28.6222 24.3704 28.3714 24.37 28.1202C24.3721 26.0491 26.051 24.3711 28.122 24.37C28.374 24.3705 28.6255 24.3489 28.8736 24.3061C29.6659 26.0354 28.9064 28.0794 27.1771 28.8717C26.2663 29.289 25.2188 29.289 24.3081 28.8717L24.3061 28.8697ZM28.8718 15.6979C28.6241 15.655 28.3734 15.6336 28.122 15.634C26.051 15.6329 24.3721 13.9549 24.37 11.8838C24.3698 11.6325 24.3477 11.3817 24.3042 11.1342C26.0334 10.3418 28.0775 11.1012 28.8699 12.8304C29.2867 13.7399 29.2873 14.7858 28.8717 15.6959L28.8718 15.6979ZM15.6998 11.1322C15.6568 11.3804 15.6354 11.6319 15.6359 11.8838C15.6316 13.9559 13.9501 15.6331 11.8781 15.6321C11.6268 15.6317 11.376 15.6531 11.1284 15.6959C10.3361 13.9667 11.0957 11.9226 12.825 11.1304C13.7358 10.7131 14.7832 10.7131 15.694 11.1304L15.6998 11.1322ZM11.1342 24.3042C11.3819 24.3467 11.6326 24.368 11.8839 24.368C13.9544 24.3701 15.6327 26.0476 15.6359 28.1182C15.6354 28.3701 15.6568 28.6215 15.6998 28.8697C13.9721 29.6654 11.9266 28.91 11.1309 27.1823C10.7105 26.2698 10.7096 25.2194 11.1284 24.3062L11.1342 24.3042Z" fill="#FFE0CB"/>
</svg>
