<svg width="220" height="50" viewBox="0 0 220 50" fill="none" xmlns="http://www.w3.org/2000/svg">
<path d="M0 0.000195067H27.0227C27.0789 0.000195067 27.1351 -0.000243834 27.1912 0.000195067C39.5975 0.0892918 49.6663 10.0111 49.9923 22.3595H50.0004V49.9997H38.8767V11.1237H0V0.000195067Z" fill="white"/>
<path fill-rule="evenodd" clip-rule="evenodd" d="M18.0339 50C27.9937 50 36.0677 41.9261 36.0677 31.9665C36.0677 22.0068 27.9937 13.9329 18.0339 13.9329C8.07405 13.9329 0 22.0068 0 31.9665C0 41.9261 8.07405 50 18.0339 50ZM24.944 25.0564H11.1237V38.8765H24.944V25.0564Z" fill="white"/>
<path d="M76.2956 25.026V29.6986C74.9728 28.6949 73.3541 28.193 71.4394 28.193C69.8033 28.193 68.5326 28.5218 67.6275 29.1794C66.7224 29.8025 66.2699 30.7024 66.2699 31.8792C66.2699 34.1636 67.9757 35.3058 71.3872 35.3058H78.2799V25.3894C78.2799 21.2014 76.226 19.1073 72.1182 19.1073H63.7634V14.7462H72.3793C75.7561 14.7462 78.3495 15.5769 80.1597 17.2383C81.9699 18.8996 82.875 21.2879 82.875 24.403V39.6669H71.2305C68.2716 39.6669 65.9218 39.0093 64.1812 37.694C62.4406 36.3788 61.5703 34.4578 61.5703 31.9311C61.5703 29.4044 62.4928 27.4835 64.3378 26.1682C66.1829 24.8529 68.4978 24.1953 71.2828 24.1953C72.8493 24.1953 74.5202 24.4722 76.2956 25.026Z" fill="white"/>
<path d="M87.832 39.6669V25.4933C87.832 21.5129 88.5805 18.7612 90.0774 17.2383C90.8084 16.4768 91.6961 15.9057 92.7405 15.525C93.7848 15.1442 94.6899 14.9193 95.4558 14.85C96.2564 14.7808 97.3356 14.7462 98.6933 14.7462H103.288V19.1073H97.7533C97.0571 19.1073 96.5175 19.1246 96.1346 19.1592C95.7517 19.1938 95.2991 19.315 94.7769 19.5227C94.2548 19.7303 93.8022 20.0592 93.4193 20.5091C92.7579 21.3398 92.4272 23.0012 92.4272 25.4933V39.6669H87.832Z" fill="white"/>
<path d="M105.884 39.6669V25.4933C105.884 21.5129 106.632 18.7612 108.129 17.2383C108.86 16.4768 109.748 15.9057 110.792 15.525C111.837 15.1442 112.742 14.9193 113.508 14.85C114.308 14.7808 115.387 14.7462 116.745 14.7462H121.34V19.1073H115.805C115.109 19.1073 114.569 19.1246 114.186 19.1592C113.803 19.1938 113.351 19.315 112.829 19.5227C112.307 19.7303 111.854 20.0592 111.471 20.5091C110.81 21.3398 110.479 23.0012 110.479 25.4933V39.6669H105.884Z" fill="white"/>
<path d="M127.591 18.017C130.028 15.4904 133.074 14.227 136.729 14.227C138.504 14.227 140.158 14.5731 141.689 15.2654C143.256 15.923 144.614 16.8402 145.762 18.017C146.946 19.1938 147.868 20.5783 148.53 22.1705C149.191 23.728 149.522 25.4067 149.522 27.2066C149.522 29.0064 149.191 30.7024 148.53 32.2945C147.903 33.8521 147.016 35.2193 145.867 36.3961C144.718 37.5729 143.36 38.5074 141.794 39.1997C140.227 39.8573 138.539 40.1861 136.729 40.1861C134.884 40.1861 133.178 39.8573 131.611 39.1997C130.08 38.5074 128.739 37.5729 127.591 36.3961C126.442 35.2193 125.537 33.8521 124.875 32.2945C124.249 30.7024 123.935 29.0064 123.935 27.2066C123.935 23.5377 125.154 20.4745 127.591 18.017ZM136.729 18.5881C134.292 18.5881 132.325 19.3842 130.828 20.9764C129.366 22.5685 128.635 24.6453 128.635 27.2066C128.635 29.7679 129.366 31.8446 130.828 33.4367C132.325 35.0289 134.292 35.825 136.729 35.825C139.2 35.825 141.167 35.0289 142.629 33.4367C144.091 31.81 144.822 29.7332 144.822 27.2066C144.822 24.6799 144.091 22.6204 142.629 21.0283C141.167 19.4015 139.2 18.5881 136.729 18.5881Z" fill="white"/>
<path d="M168.951 25.026V29.6986C167.628 28.6949 166.009 28.193 164.095 28.193C162.459 28.193 161.188 28.5218 160.283 29.1794C159.378 29.8025 158.925 30.7024 158.925 31.8792C158.925 34.1636 160.631 35.3058 164.043 35.3058H170.935V25.3894C170.935 21.2014 168.881 19.1073 164.774 19.1073H156.419V14.7462H165.035C168.411 14.7462 171.005 15.5769 172.815 17.2383C174.625 18.8996 175.53 21.2879 175.53 24.403V39.6669H163.886C160.927 39.6669 158.577 39.0093 156.837 37.694C155.096 36.3788 154.226 34.4578 154.226 31.9311C154.226 29.4044 155.148 27.4835 156.993 26.1682C158.838 24.8529 161.153 24.1953 163.938 24.1953C165.505 24.1953 167.176 24.4722 168.951 25.026Z" fill="white"/>
<path d="M198.398 34.2155L201.531 37.2787C199.129 39.217 196.379 40.1861 193.281 40.1861C189.417 40.1861 186.318 38.9574 183.986 36.4999C181.654 34.0078 180.487 30.9101 180.487 27.2066C180.487 23.5723 181.706 20.5091 184.143 18.017C186.614 15.4904 189.66 14.227 193.281 14.227C196.379 14.227 199.129 15.1962 201.531 17.1344L198.45 20.2495C196.988 19.1419 195.265 18.5881 193.281 18.5881C190.879 18.5881 188.964 19.3842 187.537 20.9764C186.144 22.5339 185.448 24.6106 185.448 27.2066C185.448 29.8025 186.144 31.8965 187.537 33.4887C188.964 35.0462 190.879 35.825 193.281 35.825C195.3 35.825 197.006 35.2885 198.398 34.2155Z" fill="white"/>
<path d="M203.341 19.1073L212.688 9.81396V14.7462H219.737V19.1073H212.688V29.8025C212.688 31.0139 212.879 32.0176 213.262 32.8137C213.68 33.6098 214.272 34.1809 215.037 34.527C215.803 34.8385 216.517 35.0462 217.178 35.15C217.875 35.2539 218.727 35.3058 219.737 35.3058V39.6669C215.734 39.6669 212.775 38.9054 210.86 37.3825C208.945 35.8596 207.988 33.3329 207.988 29.8025V19.1073H203.341Z" fill="white"/>
</svg>
