<svg width="640" height="943" viewBox="0 0 640 943" fill="none" xmlns="http://www.w3.org/2000/svg">
<path opacity="0.1" d="M-193 1H-269C-296.614 1 -319 23.3858 -319 51V892C-319 919.614 -296.614 942 -269 942H-193C-165.386 942 -143 919.614 -143 892V778.5C-143 750.886 -120.614 728.5 -93 728.5H-24C3.61423 728.5 26 750.886 26 778.5V892C26 919.614 48.3858 942 76 942H335C362.614 942 385 919.614 385 892V778.5C385 750.886 407.386 728.5 435 728.5H589C616.614 728.5 639 706.114 639 678.5V531C639 503.386 616.614 481 589 481H76C48.3858 481 26 458.614 26 431V266.5C26 238.886 3.61423 216.5 -24 216.5H-93C-120.614 216.5 -143 194.114 -143 166.5V51C-143 23.3858 -165.386 1 -193 1Z" stroke="white"/>
</svg>
