<svg width="898" height="943" viewBox="0 0 898 943" fill="none" xmlns="http://www.w3.org/2000/svg">
<path opacity="0.1" d="M65 1H-11C-38.6142 1 -61 23.3858 -61 51V892C-61 919.614 -38.6142 942 -11 942H65C92.6142 942 115 919.614 115 892V778.5C115 750.886 137.386 728.5 165 728.5H234C261.614 728.5 284 750.886 284 778.5V892C284 919.614 306.386 942 334 942H593C620.614 942 643 919.614 643 892V778.5C643 750.886 665.386 728.5 693 728.5H847C874.614 728.5 897 706.114 897 678.5V531C897 503.386 874.614 481 847 481H334C306.386 481 284 458.614 284 431V266.5C284 238.886 261.614 216.5 234 216.5H165C137.386 216.5 115 194.114 115 166.5V51C115 23.3858 92.6142 1 65 1Z" stroke="white"/>
</svg>
