<svg width="691" height="943" viewBox="0 0 691 943" fill="none" xmlns="http://www.w3.org/2000/svg">
<path opacity="0.1" d="M-142 1H-218C-245.614 1 -268 23.3858 -268 51V892C-268 919.614 -245.614 942 -218 942H-142C-114.386 942 -92 919.614 -92 892V778.5C-92 750.886 -69.6142 728.5 -42 728.5H27C54.6142 728.5 77 750.886 77 778.5V892C77 919.614 99.3858 942 127 942H386C413.614 942 436 919.614 436 892V778.5C436 750.886 458.386 728.5 486 728.5H640C667.614 728.5 690 706.114 690 678.5V531C690 503.386 667.614 481 640 481H127C99.3858 481 77 458.614 77 431V266.5C77 238.886 54.6142 216.5 27 216.5H-42C-69.6142 216.5 -92 194.114 -92 166.5V51C-92 23.3858 -114.386 1 -142 1Z" stroke="white"/>
</svg>
