<svg width="360" height="103" viewBox="0 0 360 103" fill="none" xmlns="http://www.w3.org/2000/svg">
<path d="M340.372 29.8814C332.157 26.4412 321.194 23.477 307.786 21.071C230.373 7.17767 140.706 10.2426 61.7799 29.4768C61.0747 29.6479 60.654 30.2788 60.8382 30.8842C61.0223 31.4896 61.7452 31.8419 62.4503 31.669C140.979 12.5318 230.186 9.48269 307.2 23.3022C320.398 25.671 331.16 28.5746 339.183 31.9346C349.162 36.1152 355.059 41.046 356.705 46.5939C358.003 50.964 356.459 55.8088 352.244 60.6055C348.265 65.1296 341.94 69.5172 334.429 72.9601C319.401 79.8463 300.525 83.6159 282.365 86.6625C246.997 92.5964 210.572 96.6379 174.1 98.6714C137.629 100.705 101.092 100.734 65.5083 98.7555C51.11 97.9559 34.7156 96.6959 22.3529 91.8358C16.8796 89.6859 12.4561 86.8818 9.20458 83.5006C6.16645 80.3408 4.21322 76.7524 3.40432 72.8322C1.6043 64.1201 5.60995 54.6025 14.3946 46.717C28.9503 33.6505 55.0455 22.9791 91.9501 14.9971C129.644 6.84597 170.88 2.76539 211.199 3.19657C251.511 3.6282 290.958 8.56995 325.272 17.4882C325.966 17.6677 326.708 17.3268 326.932 16.7244C327.154 16.1221 326.774 15.4862 326.08 15.3067C308.672 10.7828 289.99 7.26086 270.556 4.84274C251.379 2.45476 231.439 1.13522 211.286 0.921072C170.74 0.484307 129.269 4.59018 91.3579 12.7883C53.9534 20.8781 27.4252 31.7688 12.5096 45.156C3.11972 53.5842 -1.14549 63.8321 0.805252 73.2753C2.63473 82.1299 9.88385 89.4578 21.218 93.912C33.9816 98.9275 50.6579 100.214 65.2864 101.027C100.983 103.011 137.634 102.982 174.218 100.943C178.079 100.728 181.933 100.489 185.791 100.229C218.495 98.0258 251.083 94.22 282.818 88.8959C301.183 85.8146 320.289 81.9934 335.629 74.9645C343.594 71.3142 350.062 66.8163 354.333 61.9569C359.061 56.5782 360.766 51.0554 359.26 45.9865C357.417 39.777 351.062 34.3581 340.37 29.8815L340.372 29.8814Z" fill="#0033FF"/>
</svg>
