<svg width="604" height="122" viewBox="0 0 604 122" fill="none" xmlns="http://www.w3.org/2000/svg">
<path d="M571.368 34.8117C557.563 30.6809 539.142 27.1217 516.612 24.2327C386.531 7.55042 235.86 11.2306 103.237 34.3259C102.052 34.5313 101.345 35.2889 101.655 36.0158C101.964 36.7426 103.179 37.1658 104.364 36.9581C236.319 13.9794 386.217 10.3181 515.627 26.9118C537.804 29.7561 555.888 33.2426 569.369 37.2771C586.138 42.2968 596.046 48.2174 598.813 54.879C600.994 60.1264 598.4 65.9437 591.316 71.7033C584.631 77.1355 574.002 82.4039 561.381 86.538C536.13 94.8065 504.411 99.3328 473.896 102.991C414.465 110.116 353.259 114.969 291.974 117.411C230.689 119.852 169.296 119.887 109.502 117.511C85.3081 116.551 57.7598 115.038 36.9861 109.203C27.7891 106.621 20.3562 103.254 14.8925 99.1943C9.78742 95.4002 6.50531 91.0915 5.14609 86.3843C2.12144 75.9235 8.8523 64.4953 23.6135 55.0268C48.0721 39.3374 91.921 26.5238 153.933 16.9395C217.272 7.15213 286.563 2.25242 354.313 2.77016C422.051 3.28844 488.336 9.22218 545.995 19.9307C547.16 20.1462 548.407 19.7369 548.784 19.0135C549.157 18.2903 548.518 17.5268 547.352 17.3113C518.1 11.8792 486.709 7.65031 454.052 4.74677C421.829 1.87944 388.322 0.295011 354.459 0.0378783C286.327 -0.486563 216.642 4.44352 152.938 14.2873C90.0858 24.0011 45.5095 37.0779 20.446 53.1525C4.66786 63.2725 -2.49915 75.5776 0.778763 86.9165C3.85291 97.5484 16.0339 106.347 35.0792 111.696C56.5264 117.718 84.5483 119.263 109.129 120.239C169.112 122.621 230.699 122.586 292.172 120.138C298.659 119.88 305.136 119.593 311.618 119.281C366.572 116.635 421.331 112.066 474.657 105.673C505.516 101.973 537.622 97.3846 563.398 88.9447C576.782 84.5616 587.65 79.1608 594.826 73.326C602.771 66.8676 605.636 60.2361 603.106 54.1497C600.009 46.6937 589.33 40.187 571.364 34.8118L571.368 34.8117Z" fill="#0033FF"/>
</svg>
