<svg width="360" height="102" viewBox="0 0 360 102" fill="none" xmlns="http://www.w3.org/2000/svg">
<path d="M340.031 28.9919C331.815 25.5517 320.852 22.5875 307.444 20.1815C230.031 6.28815 140.364 9.35307 61.4381 28.5873C60.7329 28.7584 60.3122 29.3893 60.4964 29.9947C60.6805 30.6 61.4034 30.9524 62.1085 30.7794C140.638 11.6423 229.844 8.59316 306.858 22.4127C320.056 24.7815 330.818 27.6851 338.841 31.0451C348.82 35.2256 354.717 40.1564 356.363 45.7044C357.661 50.0745 356.118 54.9192 351.902 59.716C347.924 64.24 341.598 68.6276 334.087 72.0706C319.06 78.9568 300.183 82.7264 282.024 85.7729C246.655 91.7069 210.23 95.7483 173.759 97.7819C137.287 99.8154 100.751 99.8441 65.1665 97.866C50.7682 97.0664 34.3738 95.8064 22.0111 90.9463C16.5378 88.7964 12.1143 85.9922 8.86278 82.6111C5.82465 79.4512 3.87142 75.8629 3.06253 71.9427C1.2625 63.2306 5.26815 53.713 14.0528 45.8275C28.6085 32.761 54.7037 22.0896 91.6083 14.1076C129.302 5.95644 170.539 1.87586 210.857 2.30705C251.169 2.73868 290.617 7.68042 324.93 16.5987C325.624 16.7782 326.366 16.4373 326.59 15.8348C326.812 15.2325 326.432 14.5967 325.738 14.4172C308.33 9.89325 289.648 6.37133 270.214 3.95321C251.037 1.56523 231.097 0.245691 210.944 0.0315458C170.398 -0.40522 128.927 3.70065 91.0161 11.8988C53.6116 19.9886 27.0834 30.8793 12.1678 44.2665C2.77792 52.6947 -1.48729 62.9426 0.463455 72.3858C2.29293 81.2403 9.54206 88.5682 20.8762 93.0224C33.6398 98.038 50.3161 99.3247 64.9446 100.137C100.642 102.121 137.293 102.092 173.876 100.053C177.737 99.8386 181.591 99.5998 185.449 99.3399C218.153 97.1363 250.741 93.3305 282.476 88.0064C300.841 84.9251 319.948 81.1039 335.287 74.075C343.252 70.4247 349.72 65.9267 353.991 61.0674C358.719 55.6887 360.424 50.1658 358.918 45.0969C357.075 38.8875 350.72 33.4686 340.028 28.992L340.031 28.9919Z" fill="#0033FF"/>
</svg>
