<svg width="272" height="100" viewBox="0 0 272 100" fill="none" xmlns="http://www.w3.org/2000/svg">
<path d="M257.305 28.5342C251.088 25.1483 242.792 22.2309 232.646 19.8629C174.067 6.18887 106.215 9.20541 46.4909 28.136C45.9572 28.3043 45.6389 28.9253 45.7783 29.5211C45.9176 30.1169 46.4646 30.4637 46.9982 30.2935C106.422 11.4585 173.926 8.45749 232.203 22.0589C242.19 24.3902 250.334 27.248 256.405 30.555C263.956 34.6695 268.418 39.5225 269.664 44.9828C270.646 49.2839 269.478 54.0522 266.288 58.7732C263.278 63.2258 258.491 67.5442 252.807 70.9328C241.436 77.7102 227.152 81.4203 213.41 84.4188C186.646 90.259 159.084 94.2367 131.485 96.2381C103.886 98.2396 76.2391 98.2678 49.3122 96.3209C38.4169 95.5339 26.011 94.2938 16.656 89.5104C12.5143 87.3945 9.16703 84.6346 6.70656 81.3068C4.40758 78.1969 2.92954 74.6652 2.31745 70.8068C0.955349 62.2323 3.98647 52.865 10.6339 45.104C21.6484 32.2438 41.3949 21.7408 69.321 13.8848C97.8442 5.8624 129.048 1.84624 159.558 2.27062C190.063 2.69544 219.913 7.55916 245.878 16.3366C246.403 16.5133 246.965 16.1778 247.134 15.5849C247.302 14.992 247.015 14.3662 246.49 14.1896C233.317 9.73706 219.18 6.27074 204.474 3.8908C189.963 1.54052 174.874 0.241812 159.624 0.0310478C128.942 -0.398822 97.5607 3.64223 68.8729 11.7109C40.5684 19.673 20.4943 30.3918 9.20749 43.5676C2.10208 51.8627 -1.12545 61.9489 0.350701 71.243C1.73508 79.9577 7.22058 87.1699 15.7972 91.5538C25.4556 96.4902 38.0747 97.7566 49.1443 98.5563C76.1566 100.509 103.891 100.48 131.574 98.4735C134.495 98.2624 137.412 98.0273 140.331 97.7715C165.079 95.6027 189.738 91.857 213.753 86.6169C227.65 83.5843 242.108 79.8234 253.715 72.9055C259.743 69.3128 264.637 64.8859 267.869 60.1032C271.446 54.8095 272.737 49.3738 271.597 44.385C270.203 38.2735 265.394 32.9402 257.303 28.5343L257.305 28.5342Z" fill="#0033FF"/>
</svg>
