<svg width="890" height="943" viewBox="0 0 890 943" fill="none" xmlns="http://www.w3.org/2000/svg">
<path opacity="0.1" d="M57 1H-19C-46.6142 1 -69 23.3858 -69 51V892C-69 919.614 -46.6142 942 -19 942H57C84.6142 942 107 919.614 107 892V778.5C107 750.886 129.386 728.5 157 728.5H226C253.614 728.5 276 750.886 276 778.5V892C276 919.614 298.386 942 326 942H585C612.614 942 635 919.614 635 892V778.5C635 750.886 657.386 728.5 685 728.5H839C866.614 728.5 889 706.114 889 678.5V531C889 503.386 866.614 481 839 481H326C298.386 481 276 458.614 276 431V266.5C276 238.886 253.614 216.5 226 216.5H157C129.386 216.5 107 194.114 107 166.5V51C107 23.3858 84.6142 1 57 1Z" stroke="white"/>
<rect opacity="0.1" x="-205" y="217" width="293" height="265" rx="50" stroke="white"/>
</svg>
