<svg width="40" height="40" viewBox="0 0 40 40" fill="none" xmlns="http://www.w3.org/2000/svg">
<path fill-rule="evenodd" clip-rule="evenodd" d="M19.063 29.1794C20.6284 28.977 22.1398 28.5019 23.5097 27.7407C26.8934 25.8578 28.8474 22.6215 29.0135 18.6274L29.0278 18.2819H33.7105C33.4225 15.9726 32.5511 13.7729 31.1774 11.8871L26.3868 14.9619C27.8451 17.2463 28.0322 19.7783 26.9263 22.3078C25.6146 25.3041 22.5251 27.9289 19.063 29.1794Z" fill="#6B6B6B"/>
<path fill-rule="evenodd" clip-rule="evenodd" d="M33.781 19.0031H29.7145C29.4405 23.0432 27.3204 26.4451 23.86 28.3707C21.8849 29.469 19.6367 30.016 17.3413 30.016C15.5237 30.0112 13.7221 29.6781 12.0247 29.0332C14.1051 30.3314 16.4435 31.0415 18.8662 31.0491H18.9033C23.2775 31.0491 27.2041 28.7345 29.4127 24.8533L29.5998 24.5254L32.321 26.2502C33.3088 24.313 33.8225 22.172 33.8206 20.001C33.8206 19.6647 33.8038 19.3326 33.781 19.0031Z" fill="#6B6B6B"/>
<path fill-rule="evenodd" clip-rule="evenodd" d="M18.9036 31.769H18.8648C14.5067 31.7565 10.4115 29.5992 7.49731 25.8845C9.71181 30.5704 14.4822 33.8217 20.0003 33.8217C25.1155 33.8217 29.5866 31.0263 31.9765 26.8849L29.8488 25.5365C27.4783 29.4487 23.4169 31.769 18.9036 31.769Z" fill="#6B6B6B"/>
<path fill-rule="evenodd" clip-rule="evenodd" d="M20.0004 0C8.95408 0 0 8.95441 0 20C0 31.0456 8.95408 40 20.0004 40C31.0459 40 40 31.0464 40 20C40 8.95358 31.0468 0 20.0004 0ZM20.0004 34.5429C11.9686 34.5429 5.45742 28.0318 5.45742 20C5.45742 11.9691 11.9686 5.45797 20.0004 5.45797C28.0314 5.45797 34.5417 11.9691 34.5417 20C34.5417 28.0318 28.0314 34.5429 20.0004 34.5429Z" fill="#6B6B6B"/>
</svg>
