<svg width="187" height="50" viewBox="0 0 187 50" fill="none" xmlns="http://www.w3.org/2000/svg">
<g clip-path="url(#clip0_14537_4377)">
<path d="M1.4917e-05 24.9404C0.0149492 11.1426 11.2306 -0.0149015 25.0299 1.49389e-05C38.8292 0.0149314 50.0149 11.2172 50 25.0001C49.9851 38.783 38.7993 49.9405 25 49.9405C11.1858 49.9256 -0.0149194 38.7382 1.4917e-05 24.9404ZM24.4922 33.4876C22.5508 33.5472 20.6093 33.3682 18.7127 32.9655C17.3089 32.682 16.129 31.7424 15.5466 30.4297C14.9791 29.132 14.7103 27.1182 14.7252 24.4034C14.7402 22.9864 14.8298 21.5693 14.994 20.1672C15.1583 18.7948 15.3226 17.6611 15.4719 16.7662L15.6362 15.8861C15.6362 15.8563 15.6362 15.8413 15.6362 15.8116C15.6362 15.558 15.457 15.3491 15.2181 15.3044L11.9922 14.7972H11.9474C11.7085 14.7972 11.5143 14.9613 11.4546 15.185C11.3949 15.3939 11.365 15.543 11.2754 16.0353C11.0962 16.99 10.917 17.9147 10.7378 19.2572C10.5436 20.719 10.4241 22.1957 10.3793 23.6725C10.3047 24.7018 10.3047 25.731 10.3793 26.7602C10.454 29.49 10.9319 31.6826 11.7832 33.3086C12.6344 34.9345 14.1129 36.1129 16.1738 36.8289C18.2348 37.5449 21.1022 37.9028 24.7909 37.8879H25.2539C28.9427 37.9028 31.81 37.5597 33.871 36.8289C35.9319 36.1129 37.3955 34.9345 38.2617 33.3086C39.1278 31.6678 39.5908 29.49 39.6655 26.7602C39.7402 25.731 39.7402 24.7018 39.6655 23.6725C39.6207 22.1957 39.5012 20.719 39.3071 19.2572C39.1129 17.9296 38.9486 17.0048 38.7694 16.0353C38.6798 15.543 38.635 15.3939 38.5902 15.185C38.5305 14.9613 38.3363 14.7972 38.0974 14.7972H38.0078L34.782 15.3044C34.543 15.3491 34.3638 15.558 34.3638 15.8116C34.3638 15.8413 34.3638 15.8563 34.3638 15.8861L34.543 16.7662C34.7073 17.6611 34.8716 18.7948 35.0359 20.1522C35.2001 21.5544 35.2897 22.9714 35.3047 24.3885C35.3345 27.1033 35.0508 29.1021 34.4833 30.4148C33.9158 31.7125 32.7509 32.6523 31.362 32.9505C29.4654 33.3533 27.5239 33.5323 25.5824 33.4727L24.4922 33.4876Z" fill="white"/>
<path d="M171.773 27.0139C171.773 22.0318 173.207 18.5264 178.972 18.5264C184.736 18.5264 186.17 22.0318 186.17 27.0139C186.17 31.996 184.736 35.5013 178.972 35.5013C173.207 35.5013 171.773 31.996 171.773 27.0139ZM182.511 27.0139C182.511 23.5533 182.063 21.5693 178.986 21.5693C175.91 21.5693 175.462 23.5533 175.462 27.0139C175.462 30.4745 175.925 32.4584 178.986 32.4584C182.048 32.4584 182.511 30.4595 182.511 27.0139Z" fill="white"/>
<path d="M72.0134 34.8599C72.103 35.009 72.2524 35.0985 72.4316 35.0985H73.7757C74.0445 35.0985 74.2536 34.8897 74.2536 34.6211V19.3914C74.2536 19.1229 74.0445 18.9141 73.7757 18.9141H71.0875C70.8187 18.9141 70.6096 19.1229 70.6096 19.3914V31.4738C69.4597 32.1152 68.1604 32.4433 66.8462 32.4136C65.1287 32.4136 64.2775 31.6678 64.2775 30.012V19.3914C64.2775 19.1229 64.0684 18.9141 63.7996 18.9141H61.1263C60.8575 18.9141 60.6484 19.1229 60.6484 19.3914V30.3401C60.6484 33.4427 62.112 35.4863 66.2189 35.4863C68.1006 35.4714 69.9376 34.8747 71.4758 33.8008L71.9537 34.8747L72.0134 34.8599Z" fill="white"/>
<path d="M102.27 23.6725C102.27 20.5997 100.747 18.5263 96.9088 18.5263C95.0569 18.5263 93.2499 19.0931 91.7117 20.1224C91.0247 19.123 89.7254 18.5263 87.5599 18.5263C85.7977 18.5562 84.0802 19.1528 82.6615 20.2119L82.1836 19.1379C82.094 18.9888 81.9446 18.8843 81.7654 18.8843H80.4213C80.1525 18.8843 79.9434 19.0931 79.9434 19.3616V34.5914C79.9434 34.8598 80.1525 35.0687 80.4213 35.0687H83.1095C83.3783 35.0687 83.5874 34.8598 83.5874 34.5914V22.5388C84.6179 21.9273 85.7977 21.5991 86.9924 21.5991C88.456 21.5991 89.2923 22.1361 89.2923 23.6875V34.6361C89.2923 34.9046 89.5014 35.1134 89.7702 35.1134H92.4584C92.7272 35.1134 92.9363 34.9046 92.9363 34.6361V22.5388C93.9518 21.9124 95.1465 21.5842 96.3413 21.5842C97.775 21.5842 98.6412 22.1212 98.6412 23.6725V34.6212C98.6412 34.8897 98.8502 35.0986 99.1191 35.0986H101.807C102.076 35.0986 102.285 34.8897 102.285 34.6212L102.27 23.6725Z" fill="white"/>
<path d="M110.574 33.8158C112.098 34.9346 113.935 35.5312 115.831 35.5014C120.566 35.5014 122.313 32.3242 122.313 27.0139C122.313 21.7036 120.566 18.5264 115.831 18.5264C114.293 18.5413 112.785 18.9739 111.485 19.7943V14.8868C111.485 14.6183 111.276 14.4094 111.008 14.4094H108.319C108.051 14.4094 107.842 14.6183 107.842 14.8868V34.6213C107.842 34.8898 108.051 35.0987 108.319 35.0987H109.663C109.843 35.0987 109.992 35.0092 110.082 34.86L110.574 33.8158ZM114.98 32.4137C113.755 32.4137 112.546 32.1004 111.485 31.4739V22.5389C112.546 21.9274 113.755 21.5992 114.98 21.5992C118.161 21.5992 118.639 24.0306 118.639 26.999C118.639 29.9674 118.161 32.4137 114.98 32.4137Z" fill="white"/>
<path d="M135.739 21.7034C135.321 21.6438 134.902 21.6139 134.469 21.6288C133.021 21.5692 131.587 21.9123 130.318 22.5984V34.6211C130.318 34.8896 130.109 35.0985 129.84 35.0985H127.152C126.883 35.0985 126.674 34.8896 126.674 34.6211V19.3914C126.674 19.1229 126.883 18.9141 127.152 18.9141H128.496C128.675 18.9141 128.824 19.0036 128.914 19.1527L129.392 20.2267C130.87 19.1079 132.677 18.5113 134.529 18.5411C134.947 18.5411 135.38 18.571 135.799 18.6456C136.052 18.6456 136.247 19.0483 136.247 19.3019V21.241C136.247 21.5095 136.037 21.7183 135.769 21.7183L135.739 21.7034Z" fill="white"/>
<path d="M145.027 27.6255C143.429 27.8195 142.458 28.431 142.458 30.1165C142.458 31.3546 142.996 32.5182 144.952 32.5182C146.192 32.533 147.401 32.1601 148.417 31.4441V27.2526L145.027 27.6255ZM149.313 33.8158C147.924 34.9048 146.207 35.5014 144.429 35.5014C140.248 35.5014 138.859 32.906 138.859 30.3105C138.859 26.8051 141.129 25.3283 144.788 25.0301L148.432 24.7466V23.9412C148.432 22.2854 147.655 21.644 145.251 21.644C143.743 21.644 142.249 21.8976 140.83 22.375C140.786 22.3898 140.726 22.3898 140.681 22.375C140.412 22.375 140.203 22.1661 140.203 21.8976V19.7496C140.203 19.5407 140.323 19.3617 140.517 19.2872C142.13 18.7502 143.817 18.4817 145.52 18.4817C150.836 18.4817 152.061 20.8087 152.061 24.2544V34.5915C152.061 34.86 151.852 35.0688 151.583 35.0688H150.239C150.06 35.0688 149.91 34.9793 149.821 34.8302L149.313 33.8158Z" fill="white"/>
<path d="M167.801 31.7721C167.845 31.7721 167.905 31.7721 167.95 31.7721C168.219 31.7721 168.428 31.9809 168.428 32.2494V34.3973C168.428 34.5913 168.308 34.7703 168.129 34.8449C166.8 35.3222 165.381 35.5608 163.963 35.531C158.213 35.531 156.451 32.1003 156.451 27.0435C156.451 21.9868 158.213 18.556 163.963 18.556C165.366 18.5262 166.785 18.735 168.114 19.2123C168.293 19.2869 168.413 19.4659 168.413 19.6599V21.8227C168.413 22.0913 168.204 22.3 167.935 22.3C167.875 22.315 167.831 22.315 167.771 22.3C166.606 21.9272 165.381 21.7482 164.157 21.7631C161.006 21.7631 160.095 23.911 160.095 27.0435C160.095 30.176 161.006 32.324 164.157 32.324C165.381 32.3389 166.606 32.1599 167.771 31.7869" fill="white"/>
</g>
<defs>
<clipPath id="clip0_14537_4377">
<rect width="187" height="49.9405" fill="white"/>
</clipPath>
</defs>
</svg>
