<svg width="318" height="318" viewBox="0 0 318 318" fill="none" xmlns="http://www.w3.org/2000/svg">
<g clip-path="url(#clip0_14537_4325)">
<path d="M301.617 0H16.3834C7.33508 0 0 7.33479 0 16.3827V301.605C0 310.652 7.33508 317.987 16.3834 317.987H301.617C310.665 317.987 318 310.652 318 301.605V16.3827C318 7.33479 310.665 0 301.617 0Z" fill="white"/>
<path d="M0 233.021H318V301.617C318 310.661 310.661 318 301.617 318H16.3834C7.33944 318 0 310.661 0 301.617V233.021Z" fill="#7F8386"/>
<path d="M100.042 91.0971C100.08 58.5352 126.512 32.1677 159.076 32.2186C191.639 32.2567 217.995 58.6878 217.956 91.2497C217.906 123.773 191.524 150.128 158.987 150.128C126.411 150.116 100.017 123.684 100.029 91.1098L100.042 91.0971ZM157.804 111.283C153.237 111.41 148.658 110.99 144.193 110.036C140.886 109.362 138.113 107.136 136.739 104.058C135.404 100.98 134.768 96.2485 134.806 89.8252C134.831 86.4799 135.035 83.1347 135.442 79.8022C135.823 76.5587 136.205 73.9004 136.587 71.7889L136.994 69.7029C136.994 69.7029 136.994 69.5757 136.994 69.5121C136.994 68.927 136.574 68.431 136.001 68.3292L128.395 67.1463H128.23C127.67 67.1463 127.199 67.5279 127.072 68.0748C126.945 68.5582 126.869 68.927 126.64 70.0845C126.207 72.3231 125.8 74.5109 125.355 77.6908C124.884 81.1505 124.604 84.6356 124.503 88.1207C124.337 90.5502 124.337 92.9923 124.503 95.4217C124.681 101.871 125.787 107.035 127.823 110.889C129.858 114.743 133.305 117.515 138.164 119.207C143.023 120.899 149.79 121.726 158.478 121.7H159.572C168.259 121.738 175.039 120.912 179.885 119.207C184.732 117.515 188.179 114.743 190.227 110.889C192.262 107.022 193.369 101.871 193.547 95.4217C193.712 92.9923 193.712 90.5502 193.547 88.1207C193.445 84.6356 193.165 81.1505 192.695 77.6908C192.249 74.5363 191.842 72.3613 191.41 70.0845C191.181 68.927 191.104 68.5582 190.977 68.0748C190.85 67.5406 190.367 67.1463 189.82 67.1463H189.616L182.01 68.3292C181.437 68.431 181.005 68.927 181.018 69.5121C181.018 69.5757 181.018 69.6393 181.018 69.7029L181.425 71.7889C181.806 73.9004 182.2 76.5714 182.582 79.7895C182.976 83.1093 183.18 86.4545 183.205 89.8124C183.269 96.2103 182.62 100.955 181.247 104.033C179.898 107.098 177.151 109.324 173.869 110.024C169.391 110.978 164.825 111.385 160.246 111.258H157.816L157.804 111.283Z" fill="#283A94"/>
<path d="M43.439 196.581C44.4185 196.581 45.2962 196.415 46.0721 196.085C46.848 195.754 47.4967 195.296 48.0309 194.698C48.5652 194.1 48.9722 193.388 49.2648 192.561C49.5446 191.734 49.6973 190.818 49.6973 189.826V174.995H53.3097V189.826C53.3097 191.264 53.0808 192.587 52.6229 193.808C52.1649 195.029 51.5162 196.072 50.664 196.962C49.8118 197.853 48.7814 198.539 47.5603 199.048C46.3392 199.557 44.9781 199.799 43.4517 199.799C41.9253 199.799 40.5643 199.544 39.3432 199.048C38.1221 198.552 37.0917 197.853 36.2395 196.962C35.3873 196.072 34.7258 195.029 34.2806 193.808C33.8354 192.587 33.5938 191.264 33.5938 189.826V174.995H37.2317V189.801C37.2317 190.806 37.3716 191.722 37.6514 192.548C37.9313 193.375 38.3383 194.087 38.8725 194.685C39.4068 195.283 40.0555 195.741 40.8314 196.072C41.6073 196.403 42.485 196.568 43.4645 196.568L43.439 196.581Z" fill="#283A94"/>
<path d="M57.8379 199.493V182.156H59.8349C60.3056 182.156 60.5854 182.372 60.6999 182.818L60.9416 184.471C61.5776 183.708 62.2899 183.085 63.0658 182.601C63.8417 182.118 64.7576 181.876 65.8006 181.876C66.9454 181.876 67.8867 182.194 68.599 182.818C69.3113 183.454 69.8328 184.306 70.1636 185.387C70.418 184.776 70.736 184.242 71.1303 183.797C71.5246 183.352 71.9698 182.996 72.4659 182.703C72.9493 182.423 73.4708 182.207 74.0304 182.067C74.5901 181.927 75.1371 181.864 75.7095 181.864C76.6253 181.864 77.4521 182.003 78.1772 182.296C78.9022 182.589 79.5128 183.008 80.0089 183.568C80.5049 184.128 80.8865 184.815 81.1536 185.629C81.4208 186.443 81.548 187.384 81.548 188.427V199.468H78.2026V188.427C78.2026 187.13 77.9228 186.15 77.3631 185.489C76.8034 184.827 75.9766 184.497 74.8954 184.497C74.4121 184.497 73.9669 184.573 73.5344 184.738C73.1019 184.904 72.7203 185.145 72.4023 185.476C72.0843 185.807 71.8172 186.214 71.6391 186.71C71.461 187.206 71.3592 187.766 71.3592 188.414V199.455H68.0139V188.414C68.0139 187.066 67.7468 186.087 67.2125 185.451C66.6783 184.815 65.8897 184.497 64.8593 184.497C64.147 184.497 63.4728 184.687 62.8623 185.056C62.2517 185.425 61.6793 185.947 61.1705 186.595V199.455H57.8379V199.493Z" fill="#283A94"/>
<path d="M89.3717 184.547C90.084 183.746 90.8981 183.11 91.8139 182.614C92.7298 182.118 93.7601 181.876 94.9176 181.876C95.9352 181.876 96.8383 182.067 97.6524 182.461C98.4665 182.856 99.1534 183.415 99.7258 184.153C100.298 184.891 100.731 185.781 101.036 186.824C101.341 187.867 101.494 189.05 101.494 190.373C101.494 191.772 101.316 193.044 100.972 194.189C100.629 195.334 100.133 196.326 99.4841 197.14C98.8354 197.954 98.0595 198.59 97.1436 199.048C96.2151 199.493 95.1847 199.722 94.0399 199.722C93.4803 199.722 92.9715 199.672 92.5008 199.557C92.0302 199.443 91.6104 199.29 91.2161 199.086C90.8218 198.883 90.4656 198.629 90.1349 198.336C89.8042 198.043 89.4862 197.7 89.1936 197.331L89.041 198.781C88.9519 199.252 88.6594 199.481 88.1887 199.481H86.0391V174.295H89.3717V184.535V184.547ZM89.3717 195.232C89.9187 195.945 90.5038 196.453 91.1398 196.733C91.7758 197.013 92.4754 197.166 93.2259 197.166C94.7777 197.166 95.9607 196.619 96.8002 195.512C97.6397 194.405 98.0595 192.739 98.0595 190.513C98.0595 188.453 97.6906 186.939 96.9528 185.985C96.2151 185.031 95.172 184.547 93.811 184.547C92.857 184.547 92.0302 184.764 91.3306 185.196C90.631 185.629 89.9823 186.239 89.3717 187.041V195.245V195.232Z" fill="#283A94"/>
<path d="M108.35 185.489C108.91 184.357 109.584 183.454 110.36 182.805C111.148 182.156 112.089 181.838 113.196 181.838C113.578 181.838 113.921 181.876 114.265 181.965C114.608 182.054 114.888 182.182 115.142 182.347L114.926 184.853C114.85 185.158 114.659 185.311 114.366 185.311C114.201 185.311 113.972 185.285 113.654 185.222C113.336 185.158 112.993 185.133 112.636 185.133C112.102 185.133 111.632 185.209 111.225 185.362C110.818 185.514 110.449 185.743 110.118 186.048C109.8 186.354 109.507 186.723 109.253 187.155C108.999 187.588 108.77 188.096 108.553 188.643V199.493H105.221V182.156H107.129C107.498 182.156 107.739 182.22 107.866 182.347C107.994 182.474 108.095 182.703 108.146 183.034L108.35 185.476V185.489Z" fill="#283A94"/>
<path d="M117 184.586C117.966 183.67 119.009 182.97 120.142 182.525C121.274 182.067 122.52 181.838 123.868 181.838C124.861 181.838 125.738 182.003 126.502 182.321C127.265 182.639 127.901 183.097 128.435 183.683C128.956 184.268 129.351 184.955 129.618 185.769C129.885 186.57 130.025 187.473 130.025 188.453V199.506H128.537C128.206 199.506 127.952 199.455 127.786 199.341C127.621 199.226 127.481 199.036 127.379 198.73L127.023 197.217C126.578 197.624 126.145 197.993 125.713 198.298C125.28 198.616 124.822 198.883 124.352 199.099C123.881 199.315 123.372 199.493 122.838 199.608C122.304 199.722 121.706 199.773 121.07 199.773C120.383 199.773 119.747 199.684 119.149 199.493C118.552 199.303 118.03 199.023 117.585 198.629C117.14 198.247 116.796 197.764 116.542 197.178C116.287 196.593 116.16 195.919 116.16 195.143C116.16 194.456 116.338 193.808 116.72 193.172C117.089 192.536 117.687 191.976 118.526 191.48C119.366 190.984 120.46 190.564 121.808 190.246C123.156 189.928 124.81 189.75 126.781 189.699V188.44C126.781 187.13 126.502 186.15 125.942 185.501C125.382 184.853 124.568 184.535 123.487 184.535C122.762 184.535 122.151 184.624 121.655 184.802C121.159 184.98 120.739 185.183 120.37 185.412C120.002 185.641 119.696 185.832 119.429 186.023C119.162 186.201 118.882 186.29 118.602 186.29C118.373 186.29 118.183 186.227 118.017 186.099C117.852 185.972 117.725 185.832 117.623 185.654L117.025 184.586H117ZM126.756 191.798C125.408 191.849 124.25 191.951 123.309 192.116C122.368 192.281 121.592 192.497 121.006 192.777C120.409 193.044 119.989 193.375 119.722 193.744C119.455 194.113 119.327 194.533 119.327 194.978C119.327 195.423 119.404 195.779 119.544 196.097C119.684 196.415 119.874 196.67 120.129 196.86C120.37 197.064 120.663 197.204 120.994 197.293C121.324 197.382 121.681 197.433 122.062 197.433C122.571 197.433 123.042 197.382 123.474 197.28C123.907 197.178 124.301 197.039 124.683 196.848C125.064 196.657 125.42 196.428 125.751 196.161C126.094 195.894 126.425 195.576 126.756 195.22V191.811V191.798Z" fill="#283A94"/>
<path d="M146.637 185.4C146.535 185.527 146.433 185.629 146.344 185.692C146.242 185.769 146.103 185.807 145.924 185.807C145.746 185.807 145.556 185.73 145.352 185.59C145.149 185.451 144.907 185.298 144.602 185.133C144.296 184.967 143.94 184.815 143.508 184.675C143.075 184.535 142.554 184.458 141.93 184.458C141.116 184.458 140.391 184.611 139.768 184.904C139.145 185.196 138.623 185.616 138.203 186.163C137.784 186.71 137.478 187.371 137.262 188.16C137.046 188.948 136.944 189.826 136.944 190.806C136.944 191.785 137.059 192.714 137.288 193.515C137.517 194.304 137.835 194.965 138.254 195.512C138.674 196.046 139.183 196.466 139.793 196.746C140.391 197.026 141.065 197.166 141.803 197.166C142.541 197.166 143.113 197.077 143.571 196.899C144.042 196.72 144.424 196.53 144.729 196.326C145.034 196.123 145.288 195.932 145.492 195.754C145.696 195.576 145.912 195.487 146.128 195.487C146.395 195.487 146.611 195.588 146.764 195.792L147.718 197.026C147.324 197.509 146.878 197.929 146.382 198.272C145.886 198.616 145.365 198.896 144.805 199.112C144.245 199.328 143.66 199.481 143.062 199.595C142.452 199.697 141.841 199.748 141.205 199.748C140.124 199.748 139.119 199.544 138.178 199.15C137.237 198.756 136.423 198.17 135.736 197.407C135.049 196.644 134.502 195.716 134.108 194.596C133.713 193.477 133.51 192.23 133.51 190.818C133.51 189.534 133.688 188.351 134.044 187.257C134.4 186.163 134.934 185.222 135.634 184.433C136.334 183.644 137.199 183.021 138.216 182.576C139.234 182.131 140.417 181.902 141.727 181.902C142.961 181.902 144.055 182.105 144.996 182.499C145.937 182.894 146.777 183.466 147.527 184.191L146.637 185.425V185.4Z" fill="#283A94"/>
<path d="M157.893 181.889C159.165 181.889 160.323 182.092 161.353 182.512C162.383 182.932 163.261 183.53 163.986 184.306C164.711 185.082 165.258 186.023 165.652 187.117C166.047 188.211 166.238 189.445 166.238 190.806C166.238 192.167 166.047 193.401 165.652 194.507C165.258 195.614 164.711 196.542 163.986 197.318C163.261 198.094 162.383 198.692 161.353 199.099C160.323 199.519 159.165 199.722 157.893 199.722C156.621 199.722 155.451 199.519 154.421 199.099C153.39 198.679 152.513 198.094 151.788 197.318C151.063 196.542 150.503 195.601 150.109 194.507C149.714 193.401 149.523 192.167 149.523 190.806C149.523 189.445 149.714 188.211 150.109 187.117C150.503 186.023 151.063 185.082 151.788 184.306C152.513 183.53 153.39 182.932 154.421 182.512C155.451 182.092 156.608 181.889 157.893 181.889ZM157.893 197.14C159.534 197.14 160.755 196.593 161.557 195.487C162.358 194.38 162.765 192.828 162.765 190.831C162.765 188.834 162.358 187.269 161.557 186.163C160.755 185.056 159.521 184.497 157.893 184.497C156.265 184.497 154.993 185.056 154.179 186.163C153.365 187.269 152.958 188.821 152.958 190.831C152.958 192.841 153.365 194.38 154.179 195.487C154.993 196.593 156.227 197.14 157.893 197.14Z" fill="#283A94"/>
<path d="M186.64 174.995C188.205 174.995 189.579 175.173 190.736 175.542C191.894 175.911 192.86 176.42 193.624 177.081C194.387 177.742 194.947 178.556 195.315 179.498C195.684 180.439 195.875 181.482 195.875 182.64C195.875 183.797 195.672 184.84 195.277 185.807C194.883 186.774 194.298 187.6 193.522 188.287C192.746 188.987 191.779 189.521 190.634 189.903C189.49 190.284 188.154 190.475 186.653 190.475H182.863V199.494H179.225V174.995H186.64ZM186.64 187.6C187.569 187.6 188.37 187.486 189.07 187.244C189.769 187.003 190.355 186.672 190.825 186.227C191.296 185.781 191.652 185.26 191.894 184.662C192.135 184.064 192.25 183.377 192.25 182.64C192.25 181.151 191.792 179.981 190.863 179.129C189.935 178.277 188.536 177.844 186.64 177.844H182.85V187.6H186.64Z" fill="#283A94"/>
<path d="M198.191 184.586C199.158 183.67 200.201 182.97 201.333 182.525C202.465 182.067 203.712 181.838 205.06 181.838C206.052 181.838 206.93 182.003 207.693 182.321C208.456 182.639 209.092 183.097 209.626 183.683C210.148 184.268 210.542 184.955 210.809 185.769C211.076 186.57 211.204 187.473 211.204 188.453V199.506H209.715C209.385 199.506 209.13 199.455 208.965 199.341C208.8 199.226 208.66 199.036 208.558 198.73L208.202 197.217C207.757 197.624 207.324 197.993 206.892 198.298C206.459 198.616 206.001 198.883 205.531 199.099C205.06 199.315 204.551 199.493 204.017 199.608C203.483 199.722 202.885 199.773 202.236 199.773C201.549 199.773 200.913 199.684 200.315 199.493C199.718 199.303 199.196 199.023 198.751 198.629C198.306 198.247 197.962 197.764 197.708 197.178C197.453 196.593 197.326 195.919 197.326 195.143C197.326 194.456 197.517 193.808 197.886 193.172C198.255 192.536 198.853 191.976 199.692 191.48C200.532 190.984 201.626 190.564 202.961 190.246C204.309 189.928 205.963 189.75 207.935 189.699V188.44C207.935 187.13 207.655 186.15 207.095 185.501C206.535 184.853 205.721 184.535 204.64 184.535C203.915 184.535 203.305 184.624 202.808 184.802C202.312 184.98 201.893 185.183 201.524 185.412C201.155 185.641 200.85 185.832 200.582 186.023C200.315 186.201 200.036 186.29 199.756 186.29C199.527 186.29 199.336 186.227 199.171 186.099C199.005 185.972 198.878 185.832 198.764 185.654L198.166 184.586H198.191ZM207.947 191.798C206.599 191.849 205.442 191.951 204.5 192.116C203.559 192.281 202.783 192.497 202.198 192.777C201.6 193.044 201.18 193.375 200.913 193.744C200.646 194.113 200.519 194.533 200.519 194.978C200.519 195.423 200.595 195.779 200.735 196.097C200.875 196.415 201.066 196.67 201.32 196.86C201.562 197.064 201.854 197.204 202.185 197.293C202.516 197.382 202.872 197.433 203.266 197.433C203.775 197.433 204.246 197.382 204.678 197.28C205.111 197.178 205.505 197.039 205.887 196.848C206.268 196.657 206.624 196.428 206.955 196.161C207.299 195.894 207.629 195.576 207.96 195.22V191.811L207.947 191.798Z" fill="#283A94"/>
<path d="M218.809 185.489C219.368 184.357 220.043 183.454 220.819 182.805C221.607 182.156 222.548 181.838 223.655 181.838C224.037 181.838 224.38 181.876 224.724 181.965C225.067 182.054 225.347 182.182 225.601 182.347L225.385 184.853C225.309 185.158 225.118 185.311 224.825 185.311C224.66 185.311 224.431 185.285 224.113 185.222C223.795 185.158 223.452 185.133 223.095 185.133C222.561 185.133 222.091 185.209 221.684 185.362C221.276 185.514 220.908 185.743 220.577 186.048C220.259 186.354 219.966 186.723 219.712 187.155C219.458 187.588 219.229 188.096 219.012 188.643V199.493H215.68V182.156H217.588C217.957 182.156 218.198 182.22 218.325 182.347C218.453 182.474 218.554 182.703 218.605 183.034L218.809 185.476V185.489Z" fill="#283A94"/>
<path d="M233.604 199.773C232.204 199.773 231.123 199.379 230.373 198.59C229.609 197.802 229.241 196.682 229.241 195.232V184.865H227.231C227.04 184.865 226.875 184.802 226.747 184.687C226.62 184.573 226.557 184.395 226.557 184.153V182.805L229.368 182.41L230.118 177.246C230.169 177.055 230.245 176.903 230.385 176.788C230.513 176.686 230.678 176.623 230.894 176.623H232.586V182.436H237.496V184.853H232.586V195.003C232.586 195.69 232.751 196.199 233.095 196.53C233.425 196.86 233.858 197.038 234.379 197.038C234.685 197.038 234.952 197 235.168 196.924C235.384 196.848 235.575 196.759 235.74 196.657C235.906 196.555 236.033 196.466 236.148 196.39C236.262 196.313 236.364 196.275 236.453 196.275C236.567 196.275 236.656 196.301 236.72 196.352C236.784 196.402 236.847 196.491 236.923 196.593L237.916 198.196C237.369 198.692 236.72 199.086 235.969 199.353C235.219 199.621 234.443 199.76 233.629 199.76L233.604 199.773Z" fill="#283A94"/>
<path d="M243.653 184.573C244.034 184.178 244.416 183.81 244.835 183.479C245.243 183.148 245.675 182.868 246.146 182.639C246.604 182.41 247.1 182.22 247.634 182.092C248.168 181.965 248.728 181.902 249.326 181.902C250.28 181.902 251.119 182.067 251.844 182.385C252.569 182.703 253.167 183.148 253.663 183.721C254.147 184.293 254.515 184.98 254.77 185.794C255.024 186.608 255.151 187.498 255.151 188.478V199.519H251.806V188.478C251.806 187.244 251.526 186.277 250.954 185.59C250.381 184.904 249.516 184.56 248.346 184.56C247.494 184.56 246.693 184.764 245.955 185.171C245.217 185.578 244.517 186.125 243.881 186.812V199.519H240.549V182.181H242.546C243.016 182.181 243.309 182.398 243.411 182.843L243.665 184.586L243.653 184.573Z" fill="#283A94"/>
<path d="M273.849 197.026C273.442 197.509 272.971 197.916 272.437 198.26C271.903 198.603 271.33 198.883 270.732 199.099C270.135 199.315 269.511 199.468 268.863 199.583C268.214 199.697 267.591 199.735 266.955 199.735C265.759 199.735 264.652 199.532 263.635 199.125C262.617 198.718 261.739 198.132 260.989 197.344C260.238 196.555 259.666 195.601 259.246 194.444C258.827 193.286 258.623 191.963 258.623 190.462C258.623 189.254 258.814 188.134 259.183 187.091C259.552 186.048 260.099 185.145 260.798 184.369C261.498 183.593 262.35 182.983 263.368 182.55C264.385 182.105 265.517 181.889 266.777 181.889C267.832 181.889 268.812 182.067 269.702 182.411C270.593 182.754 271.368 183.263 272.017 183.924C272.666 184.586 273.175 185.4 273.544 186.366C273.912 187.333 274.103 188.44 274.103 189.674C274.103 190.182 274.04 190.526 273.938 190.704C273.823 190.882 273.62 190.971 273.302 190.971H261.943C261.981 192.001 262.121 192.905 262.388 193.68C262.655 194.444 263.011 195.092 263.469 195.601C263.927 196.11 264.474 196.492 265.11 196.746C265.746 197 266.459 197.115 267.247 197.115C267.985 197.115 268.621 197.026 269.168 196.86C269.715 196.695 270.173 196.504 270.567 196.301C270.961 196.097 271.292 195.919 271.559 195.741C271.826 195.576 272.068 195.487 272.272 195.487C272.539 195.487 272.755 195.588 272.908 195.792L273.862 197.026H273.849ZM271.101 188.91C271.101 188.249 271.012 187.638 270.822 187.091C270.631 186.532 270.364 186.048 269.995 185.641C269.626 185.234 269.193 184.916 268.659 184.687C268.138 184.458 267.527 184.344 266.853 184.344C265.454 184.344 264.36 184.751 263.546 185.552C262.744 186.354 262.236 187.486 262.019 188.91H271.089H271.101Z" fill="#283A94"/>
<path d="M280.833 185.489C281.393 184.357 282.067 183.454 282.843 182.805C283.619 182.156 284.573 181.838 285.68 181.838C286.048 181.838 286.405 181.876 286.748 181.965C287.079 182.054 287.371 182.182 287.626 182.347L287.409 184.853C287.333 185.158 287.142 185.311 286.85 185.311C286.697 185.311 286.455 185.285 286.137 185.222C285.819 185.158 285.476 185.133 285.12 185.133C284.586 185.133 284.115 185.209 283.708 185.362C283.301 185.514 282.932 185.743 282.614 186.048C282.283 186.354 282.003 186.723 281.749 187.155C281.495 187.588 281.266 188.096 281.049 188.643V199.493H277.717V182.156H279.625C279.994 182.156 280.235 182.22 280.363 182.347C280.49 182.474 280.592 182.703 280.642 183.034L280.846 185.476L280.833 185.489Z" fill="#283A94"/>
<path d="M111.707 266.13C111.542 266.423 111.364 266.626 111.186 266.753C111.007 266.881 110.778 266.944 110.499 266.944C110.206 266.944 109.901 266.842 109.57 266.626C109.239 266.41 108.832 266.181 108.374 265.927C107.916 265.672 107.37 265.43 106.746 265.214C106.123 264.998 105.385 264.896 104.546 264.896C103.782 264.896 103.108 264.985 102.536 265.176C101.964 265.367 101.48 265.621 101.099 265.939C100.717 266.257 100.424 266.664 100.234 267.122C100.043 267.58 99.941 268.076 99.941 268.623C99.941 269.323 100.132 269.895 100.526 270.366C100.92 270.836 101.429 271.231 102.078 271.549C102.714 271.88 103.452 272.172 104.266 272.426C105.08 272.681 105.919 272.961 106.784 273.253C107.649 273.546 108.489 273.889 109.303 274.271C110.117 274.652 110.855 275.149 111.491 275.746C112.127 276.344 112.648 277.069 113.043 277.922C113.424 278.786 113.628 279.83 113.628 281.051C113.628 282.386 113.399 283.646 112.941 284.803C112.483 285.973 111.822 286.991 110.931 287.856C110.053 288.721 108.972 289.408 107.713 289.904C106.454 290.4 104.991 290.654 103.35 290.654C102.409 290.654 101.48 290.565 100.564 290.374C99.6485 290.196 98.7708 289.929 97.9313 289.586C97.0917 289.242 96.3031 288.835 95.5653 288.352C94.8276 287.869 94.1789 287.347 93.5938 286.749L95.2092 284.103C95.3491 283.913 95.5272 283.747 95.7434 283.62C95.9597 283.493 96.1886 283.429 96.443 283.429C96.7865 283.429 97.1554 283.569 97.5497 283.849C97.944 284.129 98.4146 284.434 98.9616 284.778C99.5086 285.121 100.145 285.426 100.87 285.706C101.595 285.986 102.472 286.126 103.503 286.126C105.067 286.126 106.288 285.757 107.141 285.007C108.006 284.269 108.425 283.2 108.425 281.801C108.425 281.025 108.234 280.389 107.84 279.893C107.446 279.397 106.937 278.99 106.288 278.659C105.64 278.329 104.915 278.036 104.1 277.807C103.286 277.578 102.447 277.324 101.607 277.044C100.755 276.777 99.9283 276.446 99.1142 276.064C98.3001 275.683 97.5624 275.187 96.9264 274.576C96.2904 273.966 95.7689 273.19 95.3746 272.274C94.9802 271.345 94.7894 270.213 94.7894 268.865C94.7894 267.784 95.0057 266.741 95.4381 265.71C95.8706 264.693 96.4939 263.777 97.308 262.988C98.1221 262.2 99.1397 261.564 100.335 261.08C101.531 260.597 102.918 260.368 104.469 260.368C106.212 260.368 107.827 260.635 109.303 261.182C110.778 261.729 112.038 262.492 113.068 263.472L111.694 266.066L111.707 266.13Z" fill="white"/>
<path d="M124.339 290.349H118.818V260.75H124.339V290.349Z" fill="white"/>
<path d="M148.71 285.795V290.336H131.373V260.737H136.881V285.795H148.71Z" fill="white"/>
<path d="M174.887 260.737L162.93 290.336H157.957L146 260.737H150.427C150.91 260.737 151.292 260.851 151.597 261.08C151.902 261.309 152.118 261.615 152.271 261.983L159.254 280.046C159.483 280.631 159.712 281.28 159.916 281.979C160.132 282.679 160.323 283.417 160.526 284.18C160.692 283.417 160.87 282.679 161.06 281.979C161.251 281.28 161.468 280.631 161.696 280.046L168.642 261.983C168.756 261.665 168.96 261.386 169.29 261.118C169.608 260.864 170.003 260.724 170.473 260.724H174.913L174.887 260.737Z" fill="white"/>
<path d="M183.893 265.125V273.33H194.247V277.565H183.893V285.935H197.032V290.336H178.359V260.737H197.032V265.112H183.893V265.125Z" fill="white"/>
<path d="M225.437 290.349H220.464C219.523 290.349 218.836 289.98 218.416 289.242L212.196 279.766C211.967 279.41 211.713 279.155 211.433 279.003C211.153 278.85 210.746 278.774 210.199 278.774H207.846V290.336H202.338V260.737H211.369C213.379 260.737 215.096 260.94 216.533 261.36C217.971 261.78 219.154 262.365 220.082 263.115C220.998 263.866 221.685 264.769 222.117 265.812C222.55 266.855 222.766 268 222.766 269.259C222.766 270.251 222.614 271.193 222.321 272.083C222.028 272.973 221.609 273.775 221.049 274.5C220.502 275.225 219.815 275.861 219.001 276.408C218.187 276.955 217.271 277.387 216.228 277.693C216.584 277.896 216.915 278.138 217.208 278.418C217.513 278.697 217.78 279.028 218.022 279.41L225.437 290.336V290.349ZM211.267 274.831C212.31 274.831 213.213 274.703 213.977 274.436C214.753 274.182 215.376 273.813 215.885 273.368C216.393 272.923 216.75 272.363 217.004 271.74C217.246 271.116 217.373 270.417 217.373 269.666C217.373 268.165 216.877 267.008 215.885 266.206C214.893 265.405 213.379 264.998 211.356 264.998H207.833V274.831H211.267Z" fill="white"/>
</g>
<defs>
<clipPath id="clip0_14537_4325">
<rect width="318" height="318" fill="white"/>
</clipPath>
</defs>
</svg>
