<svg width="40" height="40" viewBox="0 0 40 40" fill="none" xmlns="http://www.w3.org/2000/svg">
<g style="mix-blend-mode:luminosity">
<circle cx="20" cy="20" r="20" fill="white"/>
</g>
<path d="M2.76049e-06 19.9746C0.0114876 8.92864 8.98031 -0.0139296 20.0279 1.62891e-05C31.0755 0.0139621 40.0148 8.98033 40 20.0263C39.9852 31.0722 31.0361 40 20 40C8.94831 39.9943 -0.00573965 31.0295 2.76049e-06 19.9779V19.9746ZM19.5947 26.8228C18.0432 26.8682 16.4917 26.7291 14.9729 26.4085C14.4206 26.296 13.9033 26.053 13.464 25.6998C13.0248 25.3466 12.6764 24.8934 12.4479 24.3782C11.9956 23.3353 11.7769 21.7268 11.7916 19.5529C11.7999 18.417 11.8711 17.2823 12.0049 16.1542C12.1351 15.0555 12.2652 14.1501 12.3954 13.4381L12.5324 12.7301C12.534 12.7094 12.534 12.6885 12.5324 12.6678C12.5321 12.5722 12.4984 12.4797 12.4371 12.4063C12.3759 12.3329 12.2909 12.2832 12.1969 12.2658L9.6169 11.8638H9.56111C9.46985 11.8647 9.3815 11.896 9.31003 11.9528C9.23856 12.0095 9.18806 12.0885 9.16653 12.1772C9.12223 12.3413 9.0968 12.4651 9.01969 12.8589C8.87202 13.6185 8.73585 14.3593 8.58408 15.4397C8.42499 16.6132 8.32805 17.7942 8.29368 18.9779C8.23708 19.8024 8.23708 20.6299 8.29368 21.4545C8.35439 23.6421 8.73011 25.3905 9.42084 26.6998C10.1116 28.009 11.2814 28.9502 12.9303 29.5234C14.5792 30.0982 16.8761 30.3796 19.8212 30.3675H20.192C23.1403 30.3796 25.4372 30.0982 27.0828 29.5234C28.7285 28.9486 29.8983 28.0074 30.5923 26.6998C31.283 25.3905 31.659 23.6421 31.7203 21.4545C31.776 20.6299 31.776 19.8025 31.7203 18.9779C31.6856 17.7942 31.5884 16.6131 31.429 15.4397C31.2781 14.3733 31.1411 13.635 30.9942 12.8589C30.9122 12.4651 30.8909 12.3429 30.8466 12.1772C30.8258 12.0881 30.7756 12.0086 30.7039 11.9517C30.6323 11.8948 30.5435 11.8639 30.452 11.8638H30.3855L27.8056 12.2658C27.7105 12.2816 27.6242 12.3307 27.5621 12.4044C27.5001 12.4781 27.4662 12.5714 27.4668 12.6678C27.4651 12.6885 27.4651 12.7094 27.4668 12.7301L27.6029 13.4381C27.7331 14.1523 27.8646 15.0577 27.9975 16.1542C28.1294 17.2825 28.1995 18.417 28.2075 19.5529C28.2294 21.723 28.0107 23.3301 27.5513 24.3741C27.3246 24.8886 26.9785 25.3416 26.5416 25.6954C26.1047 26.0492 25.5897 26.2937 25.0394 26.4085C23.5218 26.7299 21.9714 26.8698 20.4208 26.8253L19.5947 26.8228Z" fill="#3544B1"/>
</svg>
