<svg width="466" height="943" viewBox="0 0 466 943" fill="none" xmlns="http://www.w3.org/2000/svg">
<path opacity="0.1" d="M833 1H909C936.614 1 959 23.3858 959 51V892C959 919.614 936.614 942 909 942H833C805.386 942 783 919.614 783 892V778.5C783 750.886 760.614 728.5 733 728.5H664C636.386 728.5 614 750.886 614 778.5V892C614 919.614 591.614 942 564 942H305C277.386 942 255 919.614 255 892V778.5C255 750.886 232.614 728.5 205 728.5H51C23.3857 728.5 1 706.114 1 678.5V531C1 503.386 23.3858 481 51 481H564C591.614 481 614 458.614 614 431V266.5C614 238.886 636.386 216.5 664 216.5H733C760.614 216.5 783 194.114 783 166.5V51C783 23.3858 805.386 1 833 1Z" stroke="white"/>
</svg>
